<?xml version="1.0" standalone="no"?><!DOCTYPE svg PUBLIC "-//W3C//DTD SVG 1.1//EN" "http://www.w3.org/Graphics/SVG/1.1/DTD/svg11.dtd"><svg t="1721802390974" class="icon" viewBox="0 0 1024 1024" version="1.1" xmlns="http://www.w3.org/2000/svg" p-id="2364" xmlns:xlink="http://www.w3.org/1999/xlink" width="32" height="32"><path d="M509.823 954.036c-107.499 0-211.106-39.075-291.722-110.019-79.88-70.293-131.728-166.787-145.99-271.707-1.87-13.761 7.764-26.43 21.524-28.3 13.76-1.876 26.435 7.764 28.305 21.524 26.217 192.811 192.972 338.207 387.882 338.207 215.86 0 391.475-175.611 391.475-391.471 0-215.861-175.615-391.477-391.475-391.477-149.312 0-287.767 86.928-352.737 221.466-6.04 12.504-21.071 17.746-33.582 11.711-12.503-6.042-17.745-21.073-11.704-33.582 35.611-73.743 90.956-136.116 160.057-180.375C342.854 94.54 425.14 70.5 509.823 70.5c59.625 0 117.485 11.687 171.962 34.731 52.611 22.251 99.853 54.099 140.414 94.659 40.564 40.565 72.412 87.805 94.663 140.418 23.045 54.477 34.726 112.331 34.726 171.963 0 59.625-11.681 117.48-34.726 171.962-22.251 52.607-54.099 99.847-94.663 140.414-40.562 40.559-87.803 72.41-140.414 94.663C627.308 942.35 569.455 954.036 509.823 954.036L509.823 954.036zM509.823 954.036" fill="#d81e06" p-id="2365"></path><path d="M689.915 733.295c-7.258 0-14.507-2.858-19.907-8.53L288.332 324.272c-10.477-10.994-10.059-28.397 0.935-38.875 10.993-10.478 28.397-10.059 38.875 0.935l381.675 400.493c10.478 10.994 10.06 28.398-0.936 38.874C703.56 730.772 696.73 733.295 689.915 733.295L689.915 733.295zM689.915 733.295" fill="#d81e06" p-id="2366"></path><path d="M324.348 757.484c-6.308 0-12.65-2.159-17.823-6.577-11.559-9.849-12.942-27.203-3.089-38.763L660.922 292.84c9.855-11.559 27.211-12.938 38.764-3.088 11.56 9.854 12.938 27.209 3.083 38.769l-357.48 419.305C339.848 754.205 332.122 757.484 324.348 757.484L324.348 757.484zM324.348 757.484" fill="#d81e06" p-id="2367"></path></svg>