<?xml version="1.0" standalone="no"?><!DOCTYPE svg PUBLIC "-//W3C//DTD SVG 1.1//EN" "http://www.w3.org/Graphics/SVG/1.1/DTD/svg11.dtd"><svg t="1724055899090" class="icon" viewBox="0 0 1024 1024" version="1.1" xmlns="http://www.w3.org/2000/svg" p-id="8616" width="32" height="32" xmlns:xlink="http://www.w3.org/1999/xlink"><path d="M922.009629 338.240561c-22.473851-53.133128-54.641481-100.847849-95.612615-141.817959s-88.684832-73.138764-141.818983-95.612615c-55.020104-23.27203-113.453958-35.07075-173.679621-35.07075-60.225663 0-118.66054 11.799744-173.681668 35.07075-53.133128 22.473851-100.847849 54.642504-141.817959 95.612615-40.971134 40.97011-73.139787 88.685855-95.613638 141.818983-23.27203 55.020104-35.07075 113.454982-35.07075 173.680645 0 60.225663 11.799744 118.66054 35.07075 173.680645 22.473851 53.133128 54.642504 100.847849 95.613638 141.817959 40.97011 40.97011 88.684832 73.138764 141.817959 95.612615 55.021128 23.271006 113.454982 35.07075 173.681668 35.07075 60.225663 0 118.659517-11.799744 173.679621-35.07075 53.134151-22.473851 100.848872-54.641481 141.818983-95.612615s73.138764-88.684832 95.612615-141.817959c23.271006-55.021128 35.07075-113.454982 35.07075-173.680645S945.280636 393.260665 922.009629 338.240561zM886.118188 670.422126c-20.50808 48.488341-49.871851 92.038206-87.276762 129.442094-37.403888 37.404911-80.954777 66.768683-129.443118 87.276762-50.190099 21.22951-103.516632 31.993668-158.498874 31.993668-54.982242 0-108.309798-10.764158-158.50092-31.993668-48.488341-20.50808-92.039229-49.871851-129.444141-87.276762-37.403888-37.403888-66.768683-80.953753-87.277786-129.442094-21.228487-50.191122-31.992645-103.517655-31.992645-158.499897s10.764158-108.309798 31.993668-158.499897c20.509103-48.488341 49.872874-92.039229 87.276762-129.444141 37.403888-37.403888 80.954777-66.768683 129.444141-87.276762C402.589636 115.471918 455.917192 104.70776 510.899434 104.70776c54.981219 0 108.308775 10.764158 158.498874 31.992645 48.488341 20.509103 92.039229 49.872874 129.443118 87.277786 37.404911 37.403888 66.768683 80.954777 87.276762 129.443118 21.22951 50.191122 31.993668 103.517655 31.993668 158.499897S907.347698 620.231003 886.118188 670.422126z" p-id="8617" fill="#8a8a8a"></path><path d="M410.490583 689.162956 198.311113 476.984509 169.367921 505.929748 410.345274 746.906078 410.490583 746.759745 410.635893 746.906078 822.753021 334.788949 793.807782 305.845757Z" p-id="8618" fill="#8a8a8a"></path></svg>