<?xml version="1.0" standalone="no"?><!DOCTYPE svg PUBLIC "-//W3C//DTD SVG 1.1//EN" "http://www.w3.org/Graphics/SVG/1.1/DTD/svg11.dtd"><svg t="1721802100305" class="icon" viewBox="0 0 1024 1024" version="1.1" xmlns="http://www.w3.org/2000/svg" p-id="2200" xmlns:xlink="http://www.w3.org/1999/xlink" width="32" height="32"><path d="M721.93 332.469" fill="#272636" p-id="2201"></path><path d="M787.132 286.42 508.845 768.441c-2.075 5.906-5.043 11.531-9.967 16.132-16.163 15.144-41.595 14.313-56.744-1.854l-183.574-169.3c-15.149-16.195-14.313-41.596 1.849-56.771 16.172-15.146 41.599-14.314 56.739 1.853l143.681 132.53 256.777-444.773c11.086-19.199 35.659-25.78 54.828-14.698C791.661 242.649 798.245 267.185 787.132 286.42L787.132 286.42z" fill="#42B49A" p-id="2202"></path><path d="M348.189 80.5l0 0.021C199.063 81.927 77.021 213.614 74.038 362.116l-0.811 0-1.634 600.407 601.152 1.629 0.043-0.078c148.2-2.602 274.785-124.355 277.74-272.066l0.222 0 1.656-609.864L348.189 80.5 348.189 80.5zM834.842 691.691c-2.651 88.833-70.602 153.997-159.453 156.754l-489.529-0.336 2.344-483.927 0 0c1.882-91.087 68.017-168.158 159.669-168.402l489.081 0.318-2.35 495.593L834.842 691.691 834.842 691.691zM834.842 691.691" fill="#42B49A" p-id="2203"></path></svg>