<?xml version="1.0" standalone="no"?><!DOCTYPE svg PUBLIC "-//W3C//DTD SVG 1.1//EN" "http://www.w3.org/Graphics/SVG/1.1/DTD/svg11.dtd"><svg t="1721642856280" class="icon" viewBox="0 0 1024 1024" version="1.1" xmlns="http://www.w3.org/2000/svg" p-id="694" xmlns:xlink="http://www.w3.org/1999/xlink" width="32" height="32"><path d="M826.368 1024H197.632C88.576 1024 0 935.424 0 826.368V197.632C0 88.576 88.576 0 197.632 0h628.736C935.424 0 1024 88.576 1024 197.632v628.736c0 109.056-88.576 197.632-197.632 197.632zM197.632 53.76c-79.36 0-143.872 64.512-143.872 143.872v628.736c0 79.36 64.512 143.872 143.872 143.872h628.736c79.36 0 143.872-64.512 143.872-143.872V197.632c0-79.36-64.512-143.872-143.872-143.872H197.632z" fill="#707070" p-id="695"></path><path d="M432.128 804.864c-118.784 0-215.552-96.768-215.552-215.552C216.576 470.528 313.344 373.76 432.128 373.76s215.552 96.768 215.552 215.552c0 118.784-96.768 215.552-215.552 215.552z m0-376.832c-89.088 0-161.792 72.704-161.792 161.792s72.704 161.792 161.792 161.792 161.792-72.704 161.792-161.792-72.704-161.792-161.792-161.792zM795.136 417.28c-118.784 0-215.552-96.768-215.552-215.552 0-4.096 0-8.192 0.512-12.8 1.024-14.848 13.824-26.112 28.672-25.088 14.848 1.024 26.112 13.824 25.088 28.672 0 3.072-0.512 6.144-0.512 9.216 0 89.088 72.704 161.792 161.792 161.792 14.848 0 27.136 12.288 27.136 27.136-0.512 14.848-12.288 26.624-27.136 26.624z" fill="#707070" p-id="696"></path><path d="M606.208 539.136c-14.848 0-27.136-12.288-27.136-27.136V228.864c0-14.848 12.288-27.136 27.136-27.136s27.136 12.288 27.136 27.136V512c0 14.848-12.288 27.136-27.136 27.136z" fill="#707070" p-id="697"></path></svg>