<?xml version="1.0" standalone="no"?><!DOCTYPE svg PUBLIC "-//W3C//DTD SVG 1.1//EN" "http://www.w3.org/Graphics/SVG/1.1/DTD/svg11.dtd"><svg t="1724250014782" class="icon" viewBox="0 0 1024 1024" version="1.1" xmlns="http://www.w3.org/2000/svg" p-id="15381" xmlns:xlink="http://www.w3.org/1999/xlink" width="32" height="32"><path d="M317.013333 0a89.6 89.6 0 0 0-66.261333 29.312L23.338667 279.509333A89.6 89.6 0 0 0 0 339.797333V934.4C0 983.893333 40.106667 1024 89.6 1024h396.8a38.4 38.4 0 1 0 0-76.8H89.6a12.8 12.8 0 0 1-12.8-12.8V396.8h256a38.4 38.4 0 0 0 38.4-38.4V76.757333l384 0.042667a12.8 12.8 0 0 1 12.8 12.8v358.4a38.4 38.4 0 1 0 76.8 0V89.6A89.6 89.6 0 0 0 755.2 0H317.013333zM90.368 320L294.4 95.488V320H90.325333z" fill="#4682b4" p-id="15382"></path><path d="M1005.184 723.925333l-299.050667-192.853333a38.954667 38.954667 0 0 0-60.16 32.725333v85.632H435.2a39.253333 39.253333 0 0 0-39.424 38.528v149.845334c0 21.546667 17.408 38.997333 38.954667 39.082666h211.285333v73.088a38.741333 38.741333 0 0 0 20.437333 34.56 39.466667 39.466667 0 0 0 39.893334-1.578666l299.52-193.536a38.826667 38.826667 0 0 0 0-65.493334h-0.682667z m-281.045333 154.24v-40.533333a39.168 39.168 0 0 0-39.381334-38.997333h-210.645333v-70.954667h210.645333a39.082667 39.082667 0 0 0 39.04-38.954667v-53.333333l188.501334 121.386667-188.16 121.386666z" fill="#87ceeb" p-id="15383"></path></svg>