<?xml version="1.0" standalone="no"?><!DOCTYPE svg PUBLIC "-//W3C//DTD SVG 1.1//EN" "http://www.w3.org/Graphics/SVG/1.1/DTD/svg11.dtd"><svg t="1724326082102" class="icon" viewBox="0 0 1024 1024" version="1.1" xmlns="http://www.w3.org/2000/svg" p-id="7104" xmlns:xlink="http://www.w3.org/1999/xlink" width="32" height="32"><path d="M465.28 716.352l42.88-5.056 240-240.256-29.44-36.48-241.92 237.44-10.24 34.752-1.28 9.6zM949.76 1024H250.24a75.84 75.84 0 0 1-74.24-74.432V250.432A75.84 75.84 0 0 1 250.24 176h699.52A75.84 75.84 0 0 1 1024 250.432v699.008a75.84 75.84 0 0 1-74.24 74.432z m-5.12-738.816a30.4 30.4 0 0 0-29.44-29.568H285.44a30.464 30.464 0 0 0-30.08 29.568v629.632a30.656 30.656 0 0 0 30.08 29.696h629.76a30.4 30.4 0 0 0 29.44-29.632V285.184z m-176-176.128a30.528 30.528 0 0 0-30.08-29.568H109.44a30.464 30.464 0 0 0-30.08 29.568v629.632a30.464 30.464 0 0 0 29.44 29.696 39.744 39.744 0 1 1 0 79.488h-34.56A75.84 75.84 0 0 1 0 773.44V74.432A75.84 75.84 0 0 1 74.24 0h699.52a75.392 75.392 0 0 1 74.24 74.432V108.8a37.12 37.12 0 0 1-39.68 39.744 40.128 40.128 0 0 1-39.68-39.744z m52.48 337.856a34.624 34.624 0 0 1 0 48.832l-271.36 271.232a34.368 34.368 0 0 1-19.2 9.856l-96 13.632h-4.48a33.984 33.984 0 0 1-26.24-11.84 35.968 35.968 0 0 1-8.32-27.584l14.08-95.616a33.152 33.152 0 0 1 9.6-19.584l271.36-271.168a34.304 34.304 0 0 1 48.64 0z m0 0" fill="#666666" p-id="7105"></path></svg>