<?xml version="1.0" standalone="no"?><!DOCTYPE svg PUBLIC "-//W3C//DTD SVG 1.1//EN" "http://www.w3.org/Graphics/SVG/1.1/DTD/svg11.dtd"><svg t="1722168887915" class="icon" viewBox="0 0 1025 1024" version="1.1" xmlns="http://www.w3.org/2000/svg" p-id="4881" xmlns:xlink="http://www.w3.org/1999/xlink" width="32.03125" height="32"><path d="M312.315 649.426c2.05 2.05 4.1 4.1 6.15 5.637l15.376 13.838c2.563 2.05 5.125 3.588 7.688 5.638-1.538-1.538-3.588-3.075-5.125-4.613 1.537 1.538 3.075 2.563 5.125 3.588-7.175-6.15-14.35-12.3-21.013-18.963-6.15-5.638-11.788-11.275-16.913-17.425 2.562 4.1 5.637 8.2 8.713 12.3m-22.039-292.132c-4.1 10.25-7.687 21.013-10.25 31.775-3.587 12.813-6.662 26.139-8.2 38.951-1.025 8.2-1.538 16.4-2.05 25.114V448.52l0.512-7.175v-3.588l0.513-3.587 1.025-7.176c0.512-2.562 0.512-4.612 1.025-7.175 0.512-4.612 2.05-9.737 2.563-14.35l1.537-7.175c0-1.025 0.513-2.563 1.025-3.588l1.025-3.587 2.05-7.176c0.513-2.562 1.025-4.612 2.05-7.175l3.588-9.738 1.537-3.587z m18.963 41c-1.537 4.613-2.562 9.226-3.587 13.839-0.513 3.587-1.538 6.662-2.05 10.25 0.512-1.538 0.512-3.588 1.025-5.125 0.512-3.588 1.537-7.175 2.562-10.763l1.025-4.613c0-1.025 0.513-1.537 0.513-2.562z m438.711 200.393c1.025-4.613 2.05-9.738 2.563-14.35 0-2.563-0.513-5.638-0.513-8.2v-1.025c0 4.612-0.512 9.737-1.025 14.35 0 2.562-0.512 6.15-1.025 9.225z m-0.512 9.225l-1.025 2.05c0 1.025-0.513 2.563-0.513 3.588-1.025 6.15-2.563 12.813-4.1 18.963 2.562-5.638 4.613-11.275 6.663-16.913 1.537-8.713 2.562-17.425 2.562-26.65v-1.538c-1.025 6.15-2.05 13.325-3.587 20.5zM445.056 701.19c1.538 0 3.075 0.512 4.613 0.512-3.075-0.512-6.15-0.512-9.225-1.025 1.537 0.513 3.075 0.513 4.612 0.513zM200.588 420.333c0.512-4.613 1.537-9.738 2.562-14.35l-1.025 4.612c-0.512 2.05-0.512 4.613-1.025 6.663-0.512 2.562-0.512 4.612-1.025 7.175 0.513-1.538 0.513-3.075 0.513-4.1zM704.9 716.053l0.513-1.026c0.512-0.512 1.025-1.025 1.025-1.537 0.512-1.025 1.537-2.05 2.05-3.075 19.988-28.7 33.313-62.014 39.976-96.353 0.512-1.537 0.512-3.587 1.025-5.125a94.369 94.369 0 0 0 1.537-16.913c0 3.588 0.513 7.176 0.513 10.763v13.326c-2.563 10.762-5.125 21.525-8.713 32.288-1.537 4.1-3.075 8.2-5.125 12.3l3.075-6.15c-4.613 13.325-10.25 26.138-16.4 38.95-1.538 2.563-3.075 5.639-4.613 8.201l1.025-1.537-1.538 3.075c-0.512 0.512-0.512 1.537-1.025 2.05-6.15 8.2-12.3 16.4-18.963 24.088 1.538-3.588 3.076-7.175 4.613-10.25zM458.382 827.78h1.025c1.025 0 2.562 0 3.587 0.513h-0.512c-1.538-0.513-3.076-0.513-4.1-0.513z m-56.89 16.913c9.226 2.563 18.964 4.613 28.701 6.15-12.3-2.05-24.6-4.612-36.9-8.2l1.537 0.513c2.05 0.512 4.613 1.025 6.663 1.537zM214.939 190.727l-0.512 0.513z m541.213 174.767c-11.275-10.25-23.575-19.988-35.876-28.7 2.563 1.024 4.613 2.562 7.176 3.587-3.075-1.538-6.15-3.588-9.226-5.125-4.1-2.563-8.712-5.638-12.812-8.2-4.1-1.538-8.2-3.588-12.3-5.126 34.338 18.963 64.576 45.614 88.151 77.39 9.738 13.325 17.938 27.163 25.114 42.026 4.1 7.175 8.2 14.863 11.275 22.55-2.563-8.2-5.125-15.888-8.713-23.575-4.612-11.788-10.25-23.576-16.4-34.851-1.538-2.563-3.075-5.638-4.613-8.2l-0.512-0.513c-3.588-4.612-7.688-9.225-11.788-13.838 1.537 2.05 2.562 4.1 4.1 6.15l3.075 5.126c-7.688-10.25-16.913-19.476-26.65-28.701zM413.793 906.707h-1.538zM884.792 611.5c0.512-6.15 0.512-12.813 0.512-18.963 0-6.663 0-13.325-0.512-19.988v-23.063c0-4.1-0.513-8.2-0.513-12.3-0.512-4.1-0.512-8.2-1.025-12.3-0.512-5.126-1.025-10.25-2.05-15.376 5.126 26.138 7.176 52.789 5.126 79.44 0 7.175-0.513 14.862-1.538 22.55z m-33.313 103.015l3.075-8.2 2.05-5.638c0.512-2.05 1.537-4.1 2.05-5.638l0.512-1.537c6.663-17.426 12.3-34.85 15.888-52.789 1.025-4.1 1.538-8.2 2.563-12.3l0.512-2.05 0.513-3.075c1.537-8.2 3.075-16.4 3.587-24.6l1.538-12.301 0.512-9.225v15.375c0 7.688-0.512 15.888-1.025 23.576-2.562 17.425-7.175 34.85-12.812 51.763-4.613 15.888-11.276 31.776-18.963 46.639z m-13.326 17.938c0 0.512-0.512 1.025-0.512 1.025 0-0.513 0-0.513 0.512-1.025zM462.482 245.566s0.512 0 0.512-0.513z m-9.226-18.45a281.718 281.718 0 0 0-71.239 51.763c-11.788 11.788-22.55 24.6-32.288 38.439-5.638 8.2-11.275 16.4-16.4 25.113-4.613 8.2-9.226 16.913-12.813 26.138-2.563 5.125-5.125 9.738-7.688 14.863 1.025-4.1 2.563-8.713 4.1-12.813 3.588-9.225 7.688-17.938 12.3-26.65 2.05-4.1 4.1-7.688 6.15-11.276 0.513-0.512 1.026-1.537 1.026-2.05l-0.513 1.025 7.688-12.3c1.537-2.05 2.562-4.1 4.1-6.15 1.537-2.05 2.562-4.1 4.1-6.15l4.1-5.638 4.613-5.638c17.938-22.038 38.95-40.488 62.526-55.864l-1.025 1.025c4.1-2.562 8.713-5.125 13.326-7.175 6.15-2.562 11.787-4.612 17.937-6.662z m405.91 572.989l-1.025 2.05-4.1 6.15-2.05 3.075c-0.512 1.025-1.537 2.05-2.05 3.075-5.637 7.688-11.275 15.888-17.425 23.575l-4.613 5.638-2.05 3.075c-0.512 1.025-1.537 2.05-2.562 2.563l-4.1 4.612c4.612-6.15 9.225-12.812 13.325-18.963 1.025-1.025 2.05-2.562 3.075-3.587 8.713-10.25 16.4-20.5 23.575-31.263zM648.524 183.039c-4.1-0.512-8.2-1.537-12.3-2.05h2.05c2.05 0 3.587 0.513 5.637 0.513 1.538 1.025 3.075 1.537 4.613 1.537zM900.68 358.32c1.025 1.537 2.05 3.587 2.562 5.125 2.05 5.638 4.1 11.788 6.15 17.425-2.562-7.687-5.637-15.375-8.712-22.55z m-188.092-165.03c-1.538-0.512-2.563-1.024-4.1-1.537 2.562 0.513 4.612 1.538 7.175 2.05-1.025 0.513-2.05 0-3.075-0.512z m-160.93 507.388c-2.562 1.538-5.124 2.563-8.2 4.1-1.537 0.513-3.587 0.513-5.124 1.025 3.587-1.537 6.662-3.075 10.25-4.612z m-244.98-379.26l-1.538 2.563c1.538-2.562 3.075-4.612 4.1-7.175l1.025-1.537 0.513-0.513c-1.538 2.563-2.563 4.613-4.1 6.663z m-17.426 275.22c-2.562-4.613-5.125-9.225-7.175-14.35-17.938-39.464-26.138-83.027-23.575-126.078 1.025-15.888 3.587-31.776 7.175-47.664-1.538 7.175-2.563 14.863-3.588 22.55-2.05 15.888-2.562 31.776-2.562 47.664 0.512 15.888 2.05 31.776 5.125 47.151 3.075 15.376 7.175 30.751 13.325 45.614 2.563 7.175 6.15 14.35 9.225 21.525 1.025 1.025 1.538 2.05 2.05 3.588z m-1.025-238.318l-5.125 13.325c-1.025 2.05-1.537 4.613-2.05 7.175l-2.05 7.175-1.025 3.588c-0.512 1.025-0.512 2.563-1.025 3.588l-1.537 7.175c-1.025 4.612-2.05 9.738-3.075 14.35-0.513 2.563-1.025 4.613-1.025 7.175l-1.538 7.175-0.513 3.588v3.588l-0.512 7.175v23.063l0.512 8.713c0.513 5.637 0.513 11.275 1.538 16.913 1.538 11.275 3.075 22.55 5.638 33.825 1.025 4.1 2.05 7.688 3.075 11.788-1.538-3.075-2.563-5.638-3.588-8.713 1.538 3.588 3.075 7.176 4.613 10.25 2.562 8.713 5.125 17.426 8.712 25.626 2.05 3.588 4.1 7.175 6.15 10.25 6.663 14.863 14.863 28.701 24.601 42.027 15.376 21.525 34.339 40.488 55.864 56.376 28.7 16.913 61.502 26.65 94.815 28.7 5.125 0.513 9.738 1.026 14.863 1.026 12.3 0 24.6-1.538 36.388-5.125 3.075-0.513 6.663-1.538 9.738-2.05 3.075-1.026 6.15-1.538 8.713-2.563 5.637-1.538 11.275-4.1 16.913-6.15-1.026 0.512-2.05 1.025-2.563 1.537-2.05 1.025-3.588 2.05-5.638 3.075 2.563-1.025 4.613-2.05 7.175-3.075 3.076-1.537 5.638-3.075 8.713-4.612 1.025-0.513 1.538-1.025 2.563-1.025l5.125-2.563c1.537-1.025 3.075-1.537 4.613-2.562l4.612-2.563 2.563-1.538c1.025-0.512 1.537-1.025 2.05-1.537l4.612-3.588c1.538-1.025 2.563-2.562 4.1-3.587 0.513-0.513 1.538-1.025 2.05-2.05l2.05-2.05c1.026-1.025 2.05-1.538 3.076-2.563 1.025-1.025 2.05-1.537 2.562-2.563-6.15 8.2-12.813 15.376-19.988 22.551-7.687 6.15-15.375 11.788-23.575 16.913-1.538 1.025-3.588 2.05-5.126 3.075-2.562 1.025-4.612 1.538-7.175 2.563-2.05 0.512-3.587 0.512-5.637 1.025-4.613 2.05-9.738 3.587-14.863 5.125-2.563 0.512-5.638 0.512-8.2 1.025 6.662-2.05 13.325-4.1 19.475-6.663-9.225 1.538-18.963 2.563-28.7 3.075 3.587-0.512 7.687-1.025 11.275-2.05 1.025-0.512 2.562-1.025 3.587-1.025h-0.512a115.533 115.533 0 0 1-18.45 3.075c-7.176 0.513-13.839 0.513-21.014 0.513-10.763 1.537-21.525 2.05-32.288 1.025 6.663 1.025 12.813 2.05 19.475 2.562 4.1 0.513 7.688 0.513 11.788 1.025-15.888 2.05-32.288 2.05-48.688-1.025-7.176-1.537-14.35-3.587-21.526-5.125-17.938-5.637-34.85-13.838-50.226-24.6-9.738-6.663-18.963-13.838-27.676-22.038a272.064 272.064 0 0 1-16.4-17.938c-13.838-16.4-25.113-34.851-34.339-54.327-17.425-39.463-25.625-83.027-23.063-126.59 1.538-21.526 5.125-43.051 11.276-63.552 4.1-12.3 8.712-24.6 13.837-36.388z m-6.15-72.265c9.226-13.837 19.476-27.675 31.264-39.975l0.512-0.513c-11.788 12.813-22.038 26.138-31.776 40.488z m392.427 718.226c-2.443-27.696 379.55-193.882 292.644-617.185-9.682-47.163-58.78-126.666-92.606-159.98-33.826-33.313-73.29-61.501-116.853-81.489l-8.2-3.588-4.1-1.537-2.05-1.025c-0.513-0.513-1.538-0.513-2.05-1.025l-8.713-2.563-4.1-1.537-4.1-1.025-8.713-2.563c-2.563-0.512-5.125-1.537-7.688-2.05-4.1-1.025-7.688-2.562-11.788-3.587-28.188-8.2-57.401-13.326-86.614-14.863-29.213-2.05-58.94-0.513-88.152 3.587L496.82 120c-0.512 0-1.025 0-1.538 0.513-5.637 1.537-11.787 2.563-17.425 4.1-23.063 5.638-45.614 13.838-67.14 23.576-21.525 10.25-42.025 22.038-61.5 35.875-16.401 11.788-32.289 25.626-46.64 39.976a69.966 69.966 0 0 1 8.713-8.712l7.688-7.688 7.688-7.175c1.537-1.025 2.562-2.563 4.1-3.588l4.1-3.587 8.2-6.663 8.2-6.663 4.1-3.075c1.538-1.025 3.076-2.05 4.1-3.075l7.688-5.637c-12.3 7.687-24.6 16.4-35.876 25.625-5.637 4.613-11.275 9.738-16.912 14.35l4.1-4.1 7.687-7.175c1.538-1.025 2.563-2.562 4.1-3.587l4.1-3.588 8.2-6.663 8.2-6.662 4.101-3.075c1.538-1.025 3.075-2.05 4.1-3.075l8.713-6.15c3.075-2.05 6.15-4.1 8.713-5.638 1.025-1.025 2.562-1.538 3.587-2.05 12.813-7.688 26.65-14.35 39.976-20.5l12.3-5.126 12.3-5.125 12.301-4.613c2.05-0.512 4.1-1.537 6.15-2.05l6.15-2.05c33.314-10.762 68.164-17.938 103.015-22.038-34.85 4.1-69.701 11.276-103.015 22.038l-6.15 2.05c-2.05 0.513-4.1 1.538-6.15 2.05l-12.3 4.613-12.3 5.125-12.3 5.125c-9.739 4.613-19.989 9.226-29.214 14.35 1.537-1.024 2.562-1.537 4.1-2.562 24.6-13.838 50.739-25.113 77.902-33.313-27.163 8.2-53.301 18.963-77.902 32.8-6.15 3.588-12.3 7.176-17.938 10.763-1.025 0.513-2.05 1.025-3.075 2.05-15.375 9.226-29.726 19.476-43.564 30.239-13.837 11.275-26.65 23.063-38.95 36.388-10.25 11.275-19.988 23.576-29.214 35.876 17.938-28.188 38.951-54.839 62.527-77.902-24.088 23.063-45.101 49.714-63.04 78.414 3.588-6.15 7.176-12.3 11.276-17.938-5.125 7.688-10.25 15.888-14.863 24.089-5.125 7.175-9.225 14.35-13.838 22.038l-6.15 11.787c-2.05 4.1-4.1 8.2-5.637 11.788-1.538 3.588-3.076 7.175-5.126 10.763 5.638-13.838 11.788-27.163 18.963-40.489 1.538-2.562 3.075-5.637 4.613-8.2-3.075 4.613-5.638 9.738-8.713 14.863l-6.15 11.788c-2.05 4.1-3.587 8.2-5.637 11.788-7.176 16.4-13.838 32.8-18.963 50.226-1.025 4.1-2.563 8.713-3.588 12.813-0.513 2.05-1.025 4.1-1.538 6.662l-1.537 6.663c-0.513 3.588-1.538 7.175-2.05 10.25 0.512-5.637 1.537-11.275 2.562-16.4 4.1-23.063 10.763-46.126 19.988-67.652-2.562 5.638-5.637 11.788-8.2 17.938-3.587 8.713-6.662 17.426-9.738 26.138-7.175 31.264-10.762 63.552-10.25 95.84v12.813c0 4.1 0 7.688 0.513 11.788 0-2.05-0.513-4.1-0.513-6.15 0 9.225 0.513 17.938 1.025 27.163-0.512-2.563-0.512-5.125-1.025-7.688-4.612-35.876-4.612-72.777 1.538-108.653 4.612-26.138 12.3-52.276 23.575-76.364 16.913-33.313 38.951-64.064 64.064-91.74 31.776-34.85 68.677-64.576 109.678-87.64 41.001-23.062 85.59-38.95 131.203-46.638-46.126 7.688-90.714 23.576-131.715 46.639-41.001 22.038-78.415 51.763-110.19 86.614-18.451 20.5-35.364 43.051-49.714 66.627-3.588 5.125-6.663 10.763-9.226 16.4-6.15 11.276-11.787 23.063-16.912 35.364-3.076 6.662-5.638 13.838-8.2 21.013 3.074-13.838 7.174-27.163 11.275-40.489-4.613 13.838-8.713 28.188-12.3 43.051-4.613 12.3-8.201 25.113-11.276 37.926l-0.513 2.05c1.538-16.4 4.1-33.313 6.663-49.713-3.075 17.425-5.637 34.338-7.175 51.763-1.025 3.075-1.538 6.15-2.563 9.738 0 2.563-0.512 4.613-0.512 7.175-3.075 18.45-4.613 37.414-4.613 55.864 1.538 24.6 6.15 48.689 12.3 72.777l6.15 24.6c1.026 2.563 2.05 4.613 3.076 7.176l0.512 2.05c4.1 14.863 9.738 29.725 15.888 43.563 0 0.513 0.513 1.025 0.513 1.538-4.613-8.2-9.225-16.913-12.813-25.626 4.1 10.25 9.225 19.988 14.35 29.213 12.3 26.651 28.7 51.252 47.664 73.29 10.25 11.275 21.525 22.038 33.313 32.288 11.788 9.738 24.6 18.45 37.926 26.65 3.588 2.05 6.663 3.588 10.25 5.638 0.513 0.513 1.538 0.513 2.05 1.025 4.1 2.05 8.713 4.1 12.813 6.15-2.05-0.512-4.1-1.537-5.637-2.562-14.35-7.175-28.701-15.376-42.026-24.6-25.114-16.914-48.177-37.414-68.677-60.477-11.788-12.813-22.038-26.65-31.776-41.514-12.813-21.013-23.575-43.05-31.776-65.601-18.45-48.689-26.138-101.99-21.525-154.267-4.613 52.277 3.075 105.065 21.013 154.267 5.637 14.863 12.3 29.725 19.475 44.076-2.562-4.1-4.612-8.713-7.175-12.813 3.588 6.663 7.175 13.838 11.275 20.5 15.888 29.214 35.876 56.377 58.94 80.465 2.05 2.05 3.587 4.1 5.637 6.15-9.225-8.2-17.938-16.4-26.138-25.626-9.225-10.25-17.938-20.5-26.138-31.775 13.325 19.475 28.7 37.926 45.613 54.838 10.25 10.25 21.013 19.476 32.289 28.189 4.612 3.075 9.737 5.637 14.862 8.712 1.538 1.025 3.075 2.563 4.613 3.588-5.638-3.075-10.763-6.15-16.4-9.738 16.913 13.326 34.85 24.6 53.813 34.339-18.963-8.2-37.413-17.938-54.326-29.726-19.988-13.325-38.438-29.213-54.839-46.639-16.4-17.938-30.75-37.413-42.026-58.426 11.788 21.013 25.626 41 42.026 58.939 16.4 17.938 34.851 33.313 54.84 47.15 19.987 13.326 41.513 24.601 63.55 33.827 2.563 1.025 5.126 2.05 7.176 3.075 7.175 3.075 14.35 6.15 22.038 8.712 4.1 1.025 8.713 2.563 12.813 3.588 2.05 0.513 4.1 1.025 5.637 1.538l-2.562-0.513c1.025 0 2.05 0.513 3.075 0.513 18.963 5.637 38.438 9.225 57.914 11.275 25.625 2.562 51.764 1.025 77.39-3.075 21.012-5.638 42.025-12.813 62.013-22.038 8.2-3.588 16.4-7.688 24.6-12.3 1.026-1.026 1.538-2.05 2.563-3.076 1.025-0.512 2.05-1.537 3.588-2.05l4.613-3.075-9.738 9.738c2.562-1.538 5.637-3.075 8.2-4.613a262.379 262.379 0 0 0 28.188-20.5c2.05-1.538 3.588-3.588 5.638-5.125l0.512-0.513 3.075-3.075 2.563-2.562c5.638-5.638 10.763-11.276 15.888-17.426 2.05-2.562 4.1-4.612 5.638-7.175-1.538 4.1-3.076 8.2-5.126 12.3-3.075 3.588-6.15 7.175-9.737 10.25-9.226 8.713-18.45 16.913-28.701 24.089-21.013 15.888-43.564 29.213-67.14 39.463-18.45 8.2-37.925 14.35-57.913 18.963 4.1-1.025 8.713-2.562 12.813-3.588-14.863 3.076-29.726 4.613-44.589 5.126a350.01 350.01 0 0 1-31.776 3.075c12.813 1.025 25.626 1.025 38.439 0.512-1.538 0.513-3.588 0.513-5.125 0.513-10.25 0.512-20.5 0-31.264-0.513-28.7-2.05-56.889-7.687-84.052-16.913-54.326-18.45-104.04-50.738-144.016-92.252-19.988-21.013-37.413-44.076-52.276-69.19-14.35-25.112-26.138-51.763-34.338-79.951 8.2 28.188 19.475 54.839 33.826 79.952 14.35 25.113 32.288 48.176 52.276 69.189 39.976 41.514 89.69 73.802 144.016 92.765 27.163 9.225 55.351 15.375 84.052 17.425 8.2 0.513 16.4 1.025 24.6 0.513-9.737 1.025-19.988 2.05-29.725 2.562-10.763-1.025-21.013-2.05-31.264-4.1-37.413-6.662-74.314-19.475-108.14-37.413-33.825-17.938-65.089-41.001-92.764-67.652 27.675 27.163 58.939 50.226 92.764 68.164 33.826 17.938 70.215 31.264 108.14 37.926a152.154 152.154 0 0 0 22.039 3.075h-1.538c-26.65-2.562-53.301-7.687-78.927-16.4-27.676-9.225-54.839-21.526-79.44-37.414-24.6-15.887-47.663-34.85-67.651-56.888 19.475 22.038 42.538 41.513 67.14 57.401 24.6 15.888 51.763 28.7 79.439 37.926 22.038 7.175 45.1 12.3 68.164 15.375h-4.1 6.662c5.125 0.513 10.763 1.025 15.888 1.538 8.713 0.512 17.426 1.025 26.138 1.025-8.2 0.512-16.913 0.512-25.113 0.512-20.5-0.512-41.513-3.587-60.989-9.737 19.988 6.15 40.489 9.225 61.502 9.737 10.25 0.513 20.5 0 30.75-1.025 18.963-0.512 37.414-2.562 56.377-6.15 28.7-5.637 56.889-15.375 83.027-29.213 0.512-0.513 1.025-0.513 1.537-1.025-6.662 4.1-13.837 8.2-20.5 11.788-1.538 0.512-3.075 1.025-4.1 1.537-14.863 6.663-30.238 11.788-46.126 15.888-1.538 0.513-3.075 1.025-4.1 1.538-22.55 5.637-46.126 8.712-69.19 9.225H482.47c-28.701-0.513-56.89-5.125-84.565-12.813-13.838-3.587-27.676-8.2-41-12.813-7.689-3.075-15.376-7.175-23.064-10.762-4.613-2.563-8.713-4.613-13.325-7.176l-3.075-2.05h-0.513c-18.963-12.3-36.9-25.625-53.814-41a322.799 322.799 0 0 1-19.475-17.939c-0.513-0.512-1.025-1.025-1.538-2.05l-3.075-3.587c1.538 2.05 3.588 3.587 5.125 5.125-2.562-2.563-5.125-5.125-7.687-8.2l-1.025-1.025-3.588-4.1c-1.025-1.025-1.538-2.05-2.563-3.076l-2.05-3.075-4.612-5.637-4.613-6.15c-0.512-1.025-1.537-2.05-2.05-3.075l-2.05-3.076-8.713-12.3c-1.537-2.05-2.562-4.1-4.1-6.15l-4.1-6.15c-2.562-4.1-5.125-8.713-7.687-12.813l-7.176-13.325c-2.05-4.1-4.1-8.713-6.15-12.813l-2.05-4.613c-1.025-2.562-1.537-4.612-2.562-7.175-1.538-4.612-3.588-9.225-5.126-14.35L161.637 591l-1.025-3.588-0.513-2.05-0.512-2.05-2.05-7.175-2.05-7.176-1.025-3.587c-0.513-1.025-0.513-2.563-1.025-3.588l-3.075-14.863c0-1.025-0.513-2.562-0.513-3.587l-0.512-3.588-1.025-7.688-1.026-7.687c0-1.025-0.512-2.563-0.512-3.588l-0.513-3.587-1.537-14.863-1.025-15.376c0-2.562-0.513-5.125-0.513-7.687v-23.063l0.513-15.376v-3.587l0.512-3.588 0.513-7.688c0.512-10.25 2.562-19.988 3.588-30.238l1.537-7.688-2.05 10.763-2.05 14.863c-1.025 8.713-2.05 17.426-2.563 26.138-2.05 35.364-0.512 70.727 5.638 105.578 4.1 24.088 10.763 48.176 18.963 70.727-1.538-4.1-3.075-8.2-4.613-11.788l-4.612-14.35-1.025-3.588-0.513-1.538-0.512-2.05-2.05-7.175-2.05-7.175-1.025-3.588c-0.513-1.025-0.513-2.562-1.025-3.587l-3.076-14.863c0-1.025-0.512-2.563-0.512-3.588l-0.513-3.587-1.025-7.176-1.025-7.175c0-1.025-0.512-2.562-0.512-3.587l-1.025-4.613-1.538-14.863-1.025-14.863c0-2.562-0.512-5.125-0.512-7.687v-23.063l0.512-14.863v-3.588l0.513-3.587 0.512-7.688c0.513-10.25 2.563-19.988 3.588-29.726 2.05-11.788 4.613-23.575 7.175-34.85v-0.513l1.538-6.15c0.512-2.05 1.537-4.1 2.05-6.15l4.1-12.3 4.612-12.301 4.613-12.3c0.513-2.05 1.538-4.1 2.563-6.15l2.562-6.15 5.125-11.788 6.15-11.788 3.075-5.638 1.538-3.075 1.538-3.075 6.662-11.275 3.075-5.638c1.025-2.05 2.563-3.588 3.588-5.638 18.45-29.725 40.488-56.888 65.089-81.49 17.425-17.424 36.388-32.8 55.864-47.15 38.438-25.113 79.952-44.589 123.515-58.427 46.126-14.35 93.79-22.55 141.966-25.625-48.176 2.562-96.352 10.762-141.966 25.113-34.85 10.763-68.676 25.625-100.965 44.076 1.025-0.513 2.05-1.025 3.075-2.05-3.075 2.05-6.662 4.1-9.737 6.15-7.688 4.613-15.376 9.738-23.063 14.863-6.15 4.1-11.788 8.2-17.938 12.813l19.988-15.376c-29.214 19.988-56.377 43.051-80.465 68.677l2.05-2.563c-1.537 1.538-2.562 3.075-4.1 5.126-6.15 6.662-11.788 13.325-17.425 20.5-4.1 5.638-8.2 11.788-11.788 17.425-12.813 17.426-24.088 35.876-34.338 55.352-1.538 3.075-3.075 5.637-4.613 8.713v0.512l-10.763 23.063-3.587 8.2c-1.025 2.563-2.563 5.638-3.588 8.2l-3.075 8.713c-1.025 2.563-2.05 5.638-3.075 8.713-4.1 11.275-7.175 23.063-9.738 34.85-0.512 3.076-1.025 6.15-2.05 8.713-0.512 3.076-1.025 6.15-1.537 8.713v1.025l-1.538 9.225c-0.512 3.076-1.025 6.15-1.025 9.738-0.512 3.075-1.025 6.15-1.025 9.225l-0.512 9.226-0.513 4.612v4.613l0.513 9.225c0 12.3 0 24.6 1.025 36.901 0.512 12.3 2.562 24.6 4.1 36.388 2.05 12.3 4.612 24.088 7.687 35.876A464.603 464.603 0 0 0 151.9 599.2c4.1 11.275 8.713 23.063 13.838 33.825 5.125 11.276 10.763 22.038 16.4 32.801 1.538 2.563 3.075 5.125 4.613 8.2l4.613 7.688c3.075 5.125 6.15 10.25 9.737 15.376 1.538 2.562 3.588 5.125 5.125 7.687l5.126 7.175 3.075 4.1 2.562 3.588 5.638 7.175c1.537 2.05 3.075 3.588 4.612 5.638-14.862-16.913-28.7-34.851-40.488-53.814-11.788-18.45-22.038-37.413-30.75-56.889-8.201-19.988-15.376-40.488-20.501-61.501-5.125-21.013-8.713-42.539-10.25-64.064-1.026-10.763-1.026-21.526-1.026-32.801 0.513-10.763 0.513-21.526 2.05-32.288a349.653 349.653 0 0 1 4.613-32.289c2.05-10.763 4.1-21.525 7.175-31.776 1.538-5.125 3.075-10.25 4.613-15.887 0.512-2.563 1.537-5.126 2.562-7.688 1.025-2.563 1.538-5.125 2.563-7.688 2.05-5.125 3.587-10.25 5.638-15.375l3.075-7.688 3.075-7.688c8.712-19.988 18.963-38.95 30.75-57.4 11.276-18.451 24.601-35.877 38.439-52.277 13.838-16.4 28.7-32.289 45.101-46.639l12.3-10.763c4.1-3.587 8.2-6.662 12.3-10.25 8.713-6.663 16.913-13.325 26.139-19.475 8.712-6.15 17.938-11.788 27.163-17.426 8.2-5.125 17.425-10.25 26.65-15.375 18.963-9.738 38.951-18.45 58.94-25.626 19.987-7.175 41-13.325 62.013-17.425 21.013-4.1 42.54-7.175 63.552-8.2-21.525 1.025-42.539 4.1-63.552 8.2-21.013 4.1-41.513 10.25-62.014 17.425-20.5 7.175-39.976 15.888-58.938 25.626-9.738 4.612-18.963 10.25-28.189 15.888-9.225 5.637-18.45 11.275-27.163 17.425-17.938 12.3-34.85 25.626-50.739 40.489-15.887 14.35-31.263 30.238-45.1 46.638-13.839 16.4-26.651 33.826-38.44 52.277-11.787 18.45-22.037 37.413-30.75 57.401l-3.075 7.688-3.075 7.687c-2.05 5.125-4.1 10.25-5.638 15.376-1.025 2.562-1.537 5.125-2.562 7.687-1.025 2.563-1.538 5.126-2.563 7.688-1.537 5.125-3.075 10.25-4.612 15.888-3.075 10.25-5.126 21.013-7.176 31.776a349.619 349.619 0 0 0-4.612 32.288c-1.025 10.763-1.538 21.526-2.05 32.8 0 10.764 0 22.039 1.025 32.802 1.537 21.525 4.612 43.563 10.25 64.576 5.125 21.013 12.3 42.026 20.5 62.014 8.713 19.988 19.476 38.951 30.751 57.402 19.476 30.75 43.051 58.426 69.702 83.027l4.613 4.612 3.075 3.075 1.537 1.538 1.538 1.537 7.175 6.15 3.588 3.076c1.025 1.025 2.562 2.05 3.587 2.562l7.175 5.638c2.563 2.05 5.125 3.587 7.688 5.125l7.688 5.125c15.375 9.738 31.263 17.938 48.176 25.113 7.175 3.075 14.863 6.15 22.038 9.225-11.275-3.587-23.063-7.175-33.826-11.787-13.838-6.15-27.163-12.813-39.976-20.5l-10.763-6.664c-2.05-1.025-3.587-2.562-5.125-3.587l-5.125-3.588-5.125-3.587c-0.512-0.513-1.025-0.513-1.537-1.025-3.076-2.563-6.15-5.125-8.713-7.688 2.05 1.538 3.587 3.075 5.637 4.613 0 0-0.512 0-0.512-0.513-3.075-2.562-6.15-4.613-9.225-7.175l-3.588-3.075-2.562-2.05-2.563-2.563-9.738-9.225c-29.213-29.726-53.814-63.552-73.29-100.452 9.226 15.375 19.476 30.238 30.752 44.076-15.888-21.526-29.726-44.589-41.514-69.19-5.125-11.275-10.25-22.55-14.35-34.338-15.376-43.563-23.576-89.69-24.6-135.816a428.96 428.96 0 0 1 7.687-88.664c3.075-15.888 7.175-32.289 12.3-47.664 2.05-5.638 4.1-11.788 6.663-17.425l-2.05 4.612-4.1 7.175c3.587-10.762 8.2-21.525 12.812-31.775 3.076-6.663 6.15-13.326 9.738-19.988 3.588-6.663 6.663-13.326 10.763-19.476l5.638-9.738 3.075-4.612 3.075-4.613 6.15-9.225 3.075-4.613 3.075-4.612c17.425-24.088 37.413-46.126 58.939-65.602 43.564-39.976 94.815-70.727 149.654-91.74 54.838-20.5 113.265-32.288 171.691-34.338 58.427-2.05 117.366 4.613 173.742 21.526C692.6 25.186 633.661 18.01 575.234 20.06 516.295 22.11 458.381 33.386 403.03 54.4c-54.839 21.013-106.602 51.251-150.166 91.227-13.325 12.3-26.138 25.626-38.438 39.464l2.05-2.05 4.612-5.126 4.613-5.125 2.562-2.562 2.563-2.563 9.738-10.25c1.537-1.538 3.075-3.588 5.125-5.125l5.125-5.125c3.588-3.075 6.663-6.663 10.25-9.738l10.763-9.225c1.537-1.538 3.588-3.075 5.638-4.613l5.637-4.613c7.175-6.15 14.863-11.275 22.55-16.913 3.588-2.562 7.688-5.125 11.789-8.2l5.637-4.1c2.05-1.537 4.1-2.562 6.15-3.587l12.3-7.688c4.1-2.563 8.2-4.613 12.301-7.175l6.15-3.588 6.15-3.075 12.3-6.15c4.1-2.05 8.713-4.1 12.813-5.638l6.15-3.075c2.05-1.025 4.613-1.537 6.663-2.562l13.325-5.125 13.326-4.613 6.662-3.075 6.663-2.05 13.325-4.1-13.325 4.1-6.663 2.05-6.662 2.562-13.326 4.613-13.325 5.125c-2.05 1.025-4.612 1.538-6.663 2.563l-6.662 3.075c-4.1 2.05-8.713 4.1-12.813 5.637l-12.813 6.15-6.15 3.076-6.15 4.1c-4.1 2.562-8.2 4.612-12.3 7.175l-11.788 7.175c-2.05 1.025-4.1 2.563-6.15 3.588l-5.638 4.1c-4.1 2.562-7.688 5.125-11.788 8.2-7.687 5.638-15.375 11.275-22.55 16.913l-5.638 4.613c-2.05 1.537-3.588 3.075-5.638 4.612l-10.762 9.225c-3.588 3.075-7.176 6.663-10.25 9.738l-5.126 5.125c-1.537 1.538-3.587 3.075-5.125 5.125l-9.738 10.25-2.562 2.563-2.563 2.563-4.612 5.125-4.613 5.125-2.563 2.563-2.05 3.075-8.712 11.275c-1.538 2.05-3.075 3.587-4.1 5.638l-4.613 5.637c-2.563 4.1-5.638 7.688-8.2 11.788l-7.688 11.788c-2.562 4.1-5.125 8.2-7.175 12.3l-3.588 6.15c-1.025 2.05-2.05 4.1-3.587 6.15l-6.663 12.813c-2.05 4.1-4.1 8.713-6.15 12.813l-3.588 6.15c-1.025 2.05-2.05 4.613-2.562 6.663l-5.638 13.325-5.125 13.325-2.563 6.663-2.05 6.663-4.1 13.838-3.075 13.837c-0.512 2.563-1.025 4.613-1.537 7.176l-1.538 7.175c-1.025 4.612-2.05 9.225-2.562 13.838l-2.05 14.35c-0.513 2.563-0.513 4.613-1.025 7.175l-0.513 7.175-1.537 14.35c-2.05 37.927 0 76.365 7.687 114.29 15.888 65.09 47.151 126.592 90.715 177.33 4.613 5.638 9.225 11.276 13.838 16.4l-5.125-5.124c-11.788-12.3-22.55-26.139-32.801-39.976 10.25 13.837 21.013 27.675 32.8 39.976 3.076 3.075 5.638 6.15 8.713 8.712 9.738 10.763 19.988 20.5 30.751 30.238 22.038 19.476 46.639 36.389 72.777 50.74 3.075 1.537 6.15 3.074 9.225 5.124-1.025-0.512-1.537-0.512-2.562-1.025 1.537 0.513 2.562 1.025 4.1 1.025 6.15 3.075 12.3 5.638 18.45 8.2-1.537-0.512-3.075-1.024-4.613-1.024 11.276 4.612 22.551 8.712 34.339 12.3 7.687 2.562 15.375 4.612 23.575 6.662 25.626 4.1 51.764 6.15 77.902 5.126 14.863 0 29.726-0.513 44.589-2.05 4.613-0.513 9.225-1.025 13.838-2.05l7.175-1.026 3.587-0.512 3.588-0.513 13.838-3.075c4.613-1.025 9.225-2.562 13.838-3.587 17.938-5.638 35.876-12.3 52.276-21.013 16.913-8.713 32.8-19.476 47.151-31.263l5.638-4.613 2.562-2.05c1.025-0.513 2.05-1.538 2.563-2.563l10.25-9.737c3.588-3.588 6.663-6.663 9.738-10.25l2.562-2.563 2.05-2.563 4.613-5.637c10.763-12.813 19.988-26.651 28.7-41.001l-4.612 8.712-5.637 9.225-3.075 4.613-3.076 4.613c7.688-9.738 14.35-20.5 20.501-31.264l10.763-26.138 1.025-2.05c1.025-2.05 2.05-4.612 2.562-6.662l2.563-6.663c1.025-2.563 2.05-5.125 2.562-7.688 3.588-9.225 6.663-18.963 9.226-28.7 9.225-36.389 10.25-74.315 3.587-111.216v-0.512l-1.025-5.638-1.025-5.637c-0.512-3.076-1.025-6.15-2.05-9.226 1.025 2.563 2.563 5.638 3.588 8.2-1.538-3.075-2.563-6.15-4.1-9.225v-1.025l-4.613-16.913c-5.125-16.913-11.275-33.313-18.963-49.2-2.563-4.613-5.638-8.714-8.713-13.326l-1.025-1.538c6.663 9.226 12.3 18.45 17.426 28.188 2.05 4.613 4.612 8.713 6.15 13.326 0.512 1.025 1.025 1.537 1.025 2.562-6.663-15.888-14.863-31.775-24.6-46.126-2.05-2.05-3.588-4.612-5.638-6.662-3.075-4.613-6.15-9.738-9.738-14.35-16.4-19.476-36.388-34.852-58.426-46.64-1.026-1.024-2.563-1.537-3.588-2.562a300.883 300.883 0 0 0-41.514-18.45c-0.512 0-1.025-0.513-2.05-0.513a232.817 232.817 0 0 0-26.138-4.613c16.4 2.563 32.289 7.176 47.664 13.838 3.587 1.538 7.688 3.588 11.275 5.638-19.475-8.2-40.488-13.838-61.501-15.888-8.2-2.05-16.4-3.588-25.113-5.125-14.863 0-29.726 2.562-44.589 6.663h-0.513c-0.512 0-1.025 0-2.05 0.512-2.05 0.513-3.587 1.025-5.637 2.05-3.588 1.025-7.175 2.563-10.25 3.588-8.713 3.075-16.913 7.175-25.114 11.788 8.2-6.15 16.4-11.276 25.114-16.4l6.662-3.588 1.538-0.513c1.025 0 1.537-0.512 2.562-0.512l4.613-1.538 1.025-0.513 0.512-0.512c9.738-2.05 19.476-3.075 29.214-3.588 3.075 0 6.15-0.512 9.225-0.512h9.225l9.225 0.512c3.075 0 6.15 0.513 9.226 0.513 7.687 0.512 14.862 1.537 22.55 3.075 2.563 0.512 5.125 1.537 7.688 2.563l9.225 3.075c-1.538-1.025-3.075-2.05-4.613-2.563 7.688 2.563 15.376 5.125 23.063 8.713 4.1 1.025 8.2 2.562 12.3 3.587h0.513c20.5 11.276 39.464 25.113 56.377 41.514 20.5 19.475 37.926 42.026 51.763 66.626 1.538 3.588 2.563 7.176 3.588 10.763 8.2 26.138 14.35 52.789 17.425 79.952 3.075 27.163 2.563 54.839-1.025 81.49-3.587 26.65-10.762 52.788-21.525 76.877-5.638 12.3-11.788 23.575-19.476 34.85l-3.075 4.1-1.537 2.05-1.538 2.05-6.15 8.2-6.663 7.688c-2.05 2.563-4.612 5.126-6.662 7.688-9.225 10.25-19.476 19.476-30.238 27.676-10.763 8.713-21.526 16.913-33.314 24.088l-4.1 2.562-4.612 2.563c-3.076 1.538-5.638 3.588-8.713 5.125-6.15 3.075-11.788 6.663-17.938 9.738l-4.613 2.05c-1.537 1.025-3.075 1.537-4.612 2.05l-9.226 4.1c-3.075 1.538-6.15 2.563-9.225 4.1l-4.612 2.05-4.613 1.538c-50.739 18.963-106.09 27.163-160.416 22.55-13.326-1.025-27.164-3.075-40.489-6.15-4.613-1.025-9.738-2.05-14.35-3.587 4.612 1.537 8.712 2.562 13.325 3.587 13.838 3.588 27.676 6.15 41.514 8.2-12.813-1.025-25.114-3.075-37.414-5.637-9.225-2.05-18.45-4.1-27.163-7.175-9.225-3.075-18.45-7.176-27.676-11.276-17.425-7.687-33.826-17.425-49.713-27.675-7.688-5.125-15.376-10.763-23.064-16.913-7.687-5.638-14.862-11.788-22.038-17.938-14.35-12.3-28.188-25.626-41.513-39.464-13.325-13.838-25.626-28.188-37.413-43.563-5.638-7.688-11.276-15.376-16.913-23.576-5.126-8.2-10.25-15.888-15.376-24.6-4.612-8.2-9.225-16.913-13.325-25.626-2.05-4.1-4.1-8.713-6.15-13.325-1.025-2.05-2.05-4.613-2.563-6.663-1.025-2.05-2.05-4.613-2.562-6.663-3.588-9.225-6.15-18.45-8.713-27.675-2.563-9.226-4.1-18.963-5.638-28.189 1.538 9.738 3.075 18.963 5.638 28.189 2.562 9.225 5.125 18.45 8.713 27.675 1.025 2.05 1.537 4.613 2.562 6.663s1.538 4.613 2.563 6.663c2.05 4.612 3.587 8.712 6.15 13.325 4.1 8.713 8.713 17.425 13.325 25.626 4.613 8.2 9.738 16.4 15.376 24.6 5.637 8.2 10.762 15.888 16.913 23.576 11.787 15.375 24.088 29.725 37.413 43.563 13.325 13.838 27.163 27.163 41.513 39.464 7.176 6.15 14.863 12.3 22.038 17.938 7.688 5.637 15.376 11.788 23.064 16.913 15.887 10.762 32.8 19.988 49.713 28.188-7.175-3.075-14.35-6.15-21.013-9.738a295.721 295.721 0 0 1-34.85-20.5c11.275 7.687 23.062 14.35 34.85 20.5 10.763 5.125 22.038 10.25 33.314 14.35 13.837 5.638 27.675 10.25 41.513 13.838 73.802 19.476 153.754 12.813 223.456-18.963 34.85-15.375 67.139-37.413 94.302-64.064 27.676-26.65 50.226-58.426 66.626-93.277 8.2-17.425 14.863-35.876 19.988-54.326 3.588-12.813 6.15-26.138 8.2-39.464-1.024 24.6-4.612 48.689-9.737 72.777 5.638-25.113 9.225-50.739 10.25-76.364v-3.588c0.513-3.588 1.025-6.663 1.025-10.25 2.563-26.65-0.512-53.814-7.687-79.952-4.1-19.988-9.738-39.464-17.426-58.427-9.225-22.038-21.013-42.538-35.876-60.989l1.025 1.025 1.538 1.538c2.562 2.563 5.125 4.613 7.687 7.175 7.688 7.688 15.376 15.888 22.039 24.088 1.025 2.05 2.562 4.1 3.587 5.638 20.5 34.85 33.313 74.314 38.439 114.803 0.512 4.612 0.512 9.225 0.512 13.837 0 4.1 0 7.688-0.512 11.788 0 4.613-0.513 8.713-1.025 13.326 0 3.587-1.026 6.662-1.538 10.25v-8.2 1.025c-0.513 4.612-1.025 8.712-1.538 13.325-0.512 4.613-1.537 8.713-2.05 13.325-0.512 2.05-0.512 4.613-1.025 6.663l-1.537 6.663c-2.05 9.737-4.613 19.475-7.175 28.7-7.176 23.063-16.4 45.101-28.189 66.114-16.912 30.751-38.438 58.94-63.551 83.027-25.113 24.089-53.814 44.59-85.077 60.477-5.638 3.075-11.275 5.638-16.913 8.2-2.05 1.025-4.1 1.538-6.15 2.05l-7.688 2.563-3.588 1.537-3.587 1.025-15.375 4.613c-2.563 1.025-5.126 1.537-7.688 2.05l-7.688 2.05-7.688 2.05-7.687 1.538c-5.125 1.025-10.25 2.05-15.888 3.075l-15.888 2.562c-5.125 1.025-10.763 1.025-15.888 1.538l-8.2 0.512-4.1 0.513h-4.1l-15.888 0.512h-24.6c-2.563 0-5.126 0-8.2-0.512l-15.889-1.025 15.888 1.025c2.563 0 5.125 0.512 8.2 0.512h24.6l15.889-0.512h4.1l4.1-0.513 8.2-0.512c5.125-0.513 10.763-1.025 15.888-1.538l15.888-2.05c5.125-1.025 10.25-2.05 15.888-3.075l7.687-1.537 7.688-2.05 7.688-2.05c2.562-0.513 5.125-1.026 7.688-2.05l15.375-4.613h1.025c-19.988 7.175-40.489 13.325-61.502 16.913 25.626-4.613 50.74-11.788 75.34-22.038h0.512c10.25-3.588 19.988-8.2 29.726-12.3l14.35-7.176c2.563-1.025 4.613-2.562 7.176-3.587l7.175-4.1 7.175-4.1c2.562-1.538 4.612-2.563 6.663-4.1l3.587-2.563c-16.4 12.813-34.338 24.088-52.789 33.826-1.537 0.512-2.562 1.537-4.1 2.05 3.075-1.538 6.663-3.075 9.738-4.613l14.35-7.175c2.563-1.025 4.613-2.563 7.176-3.588l6.662-4.1 6.663-4.1c2.05-1.537 4.612-2.562 6.662-4.1l13.326-8.713c2.05-1.537 4.1-3.075 6.662-4.612l6.15-5.125 6.15-5.126c2.05-1.537 4.1-3.587 6.151-5.125l12.3-10.762 11.276-11.276c7.687-7.175 14.862-15.375 21.525-24.088 3.588-4.1 6.663-8.713 9.738-13.325 10.763-14.35 19.988-30.238 27.163-46.639 8.713-19.988 15.375-40.488 19.988-62.014 4.1-21.525 6.15-43.05 6.663-64.576 0-10.25 0-21.013-0.513-31.264 0-9.225-1.025-18.45-2.05-28.188 0-2.05-0.512-4.1-0.512-5.637-2.563-21.013-8.2-41.001-15.888-60.477 3.075 7.175 6.15 14.35 8.712 21.526 3.075 11.275 5.638 23.063 7.176 34.85 2.05 12.813 3.587 25.626 4.1 38.439 2.562 43.563-2.05 87.127-12.813 129.153-2.05 6.663-4.613 13.325-7.175 19.476l-4.1 10.25-4.613 9.737-2.05 5.126c-0.513 1.537-1.538 3.075-2.563 5.125l-5.125 9.737c-0.512 1.026-1.025 1.538-1.537 2.563-8.713 14.35-18.45 28.188-28.701 41.001a391.612 391.612 0 0 1-83.54 75.852c31.264-21.013 59.964-46.126 84.052-75.852 6.15-7.688 12.3-15.888 17.938-24.088-3.587 6.15-7.687 11.788-11.787 17.425-8.2 11.788-17.938 23.063-27.676 33.826l-1.025 1.025c-7.175 7.175-14.863 13.838-22.55 20.5-22.551 18.451-47.152 34.852-72.777 47.664-42.539 17.426-87.64 27.676-133.766 30.239 3.075 0 6.662-0.513 9.738-1.025 12.3-1.025 24.088-3.075 35.875-5.126 11.788-2.562 23.576-5.125 35.364-8.712 16.4-5.125 32.288-10.763 47.663-17.938-50.738 18.963-105.065 27.676-158.878 26.65-7.176 0-14.35-0.512-21.013-1.025-3.588 0-7.176-0.512-10.763-1.025l-5.125-0.512c-1.538 0-3.588-0.513-5.125-0.513l-10.763-1.025-10.25-1.537-5.126-1.025-5.125-1.025-10.25-2.05c-27.676-6.15-54.839-14.35-80.977-25.626-12.813-5.638-25.626-11.788-37.926-18.45-6.15-3.588-12.3-6.663-18.45-10.763-3.075-2.05-6.15-3.588-9.226-5.638l-8.712-5.637c-3.075-2.05-5.638-4.1-8.713-6.15-2.563-2.05-5.638-4.1-8.2-6.15 25.625 21.012 53.814 39.463 84.052 54.326 29.726 14.863 62.014 25.625 94.815 32.288l-8.713-1.538c-27.676-6.15-54.839-14.862-80.977-26.138-12.813-5.637-25.626-12.3-37.926-18.963l-18.45-10.762c-3.075-2.05-6.15-3.588-9.226-5.638l-8.712-6.15c-3.075-2.05-5.638-4.1-8.713-6.15-3.075-2.05-5.638-4.1-8.713-6.663-1.537-1.025-3.075-2.563-4.612-3.588-9.738-8.712-19.476-17.938-28.701-27.675-33.826-35.364-62.014-76.877-83.54-120.953-21.525-44.589-36.388-92.253-43.563-140.941-7.175-48.689-6.663-98.915 1.537-147.604-8.712 48.689-8.712 98.915-1.537 147.604 7.175 49.201 22.038 96.865 43.563 140.94 21.526 44.59 49.714 85.59 83.54 120.954a386.665 386.665 0 0 0 20.5 20.5c-0.512-0.512-1.025-1.025-1.537-1.025-51.251-47.664-91.227-107.115-117.878-172.204-20.5-50.226-33.313-104.553-35.876-158.879-0.512-21.013-0.512-42.026 1.025-63.039 0-1.537 0-2.563 0.513-4.1v-0.513c2.562-34.85 8.2-69.189 16.913-103.527-8.2 33.826-14.35 68.677-16.913 103.527-0.513 9.226-1.025 18.963-1.538 28.189v9.737c-0.512 19.476 0 39.464 2.05 58.94-1.025-6.663-1.537-12.814-2.05-19.476 0.513 8.2 1.025 15.888 2.05 24.088l1.538 12.813 0.512 6.662 1.025 6.663 2.05 12.813 2.563 12.813c0.512 4.1 1.537 8.2 2.562 12.3 1.025 5.638 2.563 11.275 3.588 16.4 1.025 4.1 2.05 8.2 3.075 12.813l1.538 6.15 1.025 3.075 1.025 3.075c2.562 8.2 5.125 16.913 8.2 25.114l4.612 12.3 5.126 12.3c1.025 2.05 1.537 4.1 2.562 6.15l2.563 6.15c2.05 4.1 3.587 8.2 5.637 11.788l6.15 11.788 3.076 5.638 3.075 5.637 6.662 11.276c2.05 3.587 4.613 7.175 6.663 11.275l3.588 5.638c1.025 2.05 2.562 3.587 3.587 5.637l7.688 10.763c1.025 2.05 2.562 3.588 4.1 5.125l4.1 5.125 4.1 5.125c0.513 1.025 1.538 1.538 2.05 2.563l2.05 2.562c5.638 6.663 11.276 13.326 16.913 19.476 3.075 3.075 5.638 6.663 8.713 9.225l9.225 9.225 4.613 4.613 5.125 4.1 9.738 8.713c3.587 2.562 6.662 5.637 10.25 8.2 3.587 2.563 6.663 5.638 10.25 7.688 7.175 5.125 13.838 10.25 21.526 14.863l10.762 7.175 11.276 6.662 5.637 3.075 3.075 1.538 3.076 1.538 11.787 5.125c15.888 6.662 32.289 12.812 48.689 17.938l12.3 3.587 12.3 3.075c4.1 1.025 8.2 2.05 12.813 3.075l6.15 1.538c2.05 0.512 4.1 1.025 6.15 1.025 4.1 0.512 8.713 1.537 12.813 2.05l13.326 6.663c8.712 1.025 16.913 2.05 25.625 2.562 33.314 2.563 66.627 1.538 99.94-3.587-12.3 3.075-24.6 6.15-36.9 8.2-9.226 1.025-17.938 2.05-27.164 2.562-28.7 1.538-57.401 0.513-86.102-3.075 28.7 3.588 57.402 5.125 86.102 3.588 6.15-0.513 11.788-0.513 17.938-1.538h-1.025c1.538 0 2.563-0.512 4.1-0.512 21.526-2.05 43.564-6.15 64.577-11.275l10.25-2.563 10.25-3.075c7.176-2.05 13.838-4.613 20.5-6.663 3.588-1.025 6.664-2.562 10.251-3.587l8.2-3.075c-4.612 2.05-8.712 4.1-13.325 6.15-13.838 6.15-28.188 11.787-42.539 16.913 27.676-6.15 54.327-15.888 79.44-28.701 26.65-13.325 51.251-30.75 73.802-50.739 8.712-6.662 16.913-14.35 25.113-21.525a479.39 479.39 0 0 1-22.038 23.575c8.2-8.2 16.4-16.913 24.088-25.625 24.088-23.063 45.101-49.714 62.014-78.415-5.638 10.763-11.788 21.526-18.45 31.776-33.314 50.226-78.415 92.252-131.716 119.928 53.301-27.676 98.402-69.702 132.228-119.416 11.275-16.912 21.013-34.85 29.726-53.813 1.537-3.075 3.075-6.663 4.612-9.738l4.1-10.25 2.05-5.125c0.513-1.538 1.538-3.588 2.05-5.126l3.588-10.25c1.025-3.587 2.563-6.662 3.588-10.25 3.587-11.275 6.662-22.55 9.225-34.338l-4.613 30.75c2.563-12.3 4.613-24.088 6.15-36.388 0-1.025 0.513-1.538 0.513-2.563 4.613-28.7 5.638-58.426 3.075-87.64-0.512-6.15-1.537-12.3-2.05-18.45 0-2.05-0.512-4.1-0.512-6.15-1.538-12.3-4.1-24.6-7.176-36.9 1.025 3.074 2.05 6.15 3.075 9.737-1.025-4.1-2.562-8.2-4.1-12.3-4.1-15.888-9.737-31.776-16.4-47.151-11.788-27.676-27.676-53.814-46.639-77.39-18.963-23.575-42.026-43.05-67.651-59.451-12.813-8.2-26.139-14.863-39.976-21.013-13.838-5.638-28.189-10.763-42.539-14.35-14.35-3.588-29.213-5.638-44.076-6.663-13.838-1.025-27.163-1.025-41.001 0.512 1.025 0 1.538-0.512 2.563-0.512l5.125-0.513c1.537 0 3.075-0.512 5.125-0.512l10.25-0.513h20.5c1.538 0 3.076 0.513 5.126 0.513 12.812 1.537 26.138 3.587 38.95 6.662-1.024 0-2.05-0.512-3.074-0.512-3.076-0.513-6.663-1.025-9.738-1.538-3.075-0.512-6.663-1.025-9.738-1.025h-3.588c21.526 3.075 43.052 8.2 63.552 14.863 6.15 2.05 11.788 4.1 17.938 6.15l1.025 0.513 0.513 0.512 10.762 4.613c10.763 5.638 21.526 12.3 31.264 19.475 3.587 2.563 6.662 4.613 9.737 7.176 3.075 2.562 6.663 5.125 9.738 7.687l9.225 8.2c1.538 1.538 3.075 2.563 4.613 4.1l4.613 4.1c6.15 6.15 12.3 12.3 17.937 18.451 2.05 2.05 3.588 4.613 5.638 7.175-4.612-5.637-9.738-10.763-14.863-16.4 4.1 5.125 8.2 9.738 12.3 14.863 5.638 6.662 11.276 13.838 16.913 21.013 4.1 6.15 7.688 12.3 11.276 18.963 1.537 3.075 3.587 6.15 4.612 9.225l4.613 9.225c1.025 2.05 2.05 4.613 3.075 6.663l-1.025-2.05c-1.025-1.538-2.05-3.588-2.563-5.125-5.125-9.738-11.275-18.963-17.425-27.676 9.225 15.375 17.938 31.263 25.113 48.176 10.25 24.6 18.45 50.226 24.088 76.364l1.538 9.226c4.1 24.088 5.125 48.688 3.587 73.289-1.537 27.163-6.662 54.326-14.35 80.464-7.688 25.626-18.45 50.74-31.263 74.315-4.613 7.687-9.225 14.863-13.838 22.55-26.65 38.951-59.964 73.29-97.89 100.965-37.926 27.676-80.464 49.201-125.053 63.04-44.589 13.837-91.227 21.012-138.378 19.987 46.638 1.025 93.79-5.637 138.378-19.475 44.589-13.838 87.127-35.364 125.053-63.04 29.726-21.525 56.889-47.663 80.464-76.876-5.125 7.175-10.762 13.838-16.4 20.5 7.688-9.225 15.375-18.45 22.038-28.188 4.1-5.637 8.2-10.763 11.788-16.4 12.3-18.45 23.575-37.926 32.288-57.914l-2.05 5.638-1.025 2.05c-0.512 1.537-1.537 2.562-2.05 4.1 0.513-1.025 1.025-2.05 2.05-3.075l-3.587 8.2-2.563 5.637-2.563 5.638-5.125 11.275-5.637 11.276-2.563 5.637-3.075 5.638-5.638 10.763 5.638-10.763 3.075-5.638 2.563-5.637 5.637-11.276 5.125-11.275 2.563-5.638 2.563-5.637 5.125-11.275 0.512-1.538c13.326-24.6 23.576-51.251 30.75-77.902-1.537 12.3-4.1 24.6-7.174 36.389-7.175 27.163-17.426 52.788-31.776 76.876 14.35-24.088 24.6-49.713 31.776-76.876 3.587-13.326 6.15-26.139 7.687-39.976 7.176-29.214 10.25-58.94 9.226-88.665-1.538-13.325-3.588-26.65-6.663-39.976-2.563-10.763-5.638-21.526-8.713-31.776-2.05-9.225-4.612-18.45-7.687-27.163-3.588-11.788-8.2-23.063-13.838-34.338-13.326-27.164-30.751-52.277-51.251-73.802-10.25-10.763-21.526-21.013-33.314-30.75l-9.225-9.226c2.05 1.025 4.1 2.562 6.15 3.587l-2.05-2.05c-2.562-1.537-4.613-3.075-7.175-4.612l3.075 2.562-4.1-2.562-4.613-3.075-4.612-2.563c-1.538-1.025-3.075-1.537-4.1-2.562 3.587 2.562 7.175 5.125 10.25 8.2 5.125 4.1 9.738 8.2 14.863 12.813 12.812 10.25 25.113 21.013 36.388 32.8a392.756 392.756 0 0 0-29.213-29.213l-5.125-5.125c-0.513-1.025-1.538-1.537-2.05-2.563-2.05-2.05-4.613-4.1-6.663-6.15l7.688 6.15 2.05 1.026c-0.513 0-1.025-0.513-1.025-0.513l5.637 4.613c11.788 10.762 24.088 21.525 36.901 30.75 9.738 10.25 18.45 21.013 26.65 32.289 23.576 32.288 41.002 68.676 50.74 107.627-9.226-38.95-27.164-75.34-50.227-107.627-7.687-10.763-16.4-21.013-25.625-30.751 2.05 1.537 4.1 2.562 6.15 4.1 8.713 10.25 16.913 21.013 24.6 31.776 1.538 2.05 2.563 3.587 4.1 5.637 2.05 3.075 4.613 6.663 6.663 9.738l-1.025-1.537 1.025 1.537c17.426 31.776 30.751 65.602 38.439 100.965 12.813 55.351 13.325 114.29-0.513 169.642 13.838-55.352 13.326-114.29 0.513-169.642-7.688-33.826-19.988-66.627-36.389-97.377 9.226 12.813 17.938 25.625 26.138 38.95-9.225-13.837-17.937-27.162-27.675-40.488-8.713-16.4-18.963-32.288-30.238-47.15-1.538-2.051-2.563-3.589-4.1-5.639-17.426-23.063-36.901-43.563-58.94-61.501-17.937-14.35-36.9-26.65-57.4-36.901 6.15 3.075 11.787 6.663 17.425 10.25 6.662 4.1 12.812 8.713 18.963 13.326-17.426-11.276-35.876-21.013-54.84-28.701-2.05-1.025-4.1-1.538-6.15-2.563-8.2-3.587-16.912-6.15-25.113-8.712-2.562-1.025-5.637-1.538-8.2-2.05-1.537-0.513-2.562-0.513-4.1-1.025l-4.1-0.513-8.713-1.538-4.1-0.512c-1.025 0-1.537 0-2.562-0.513-6.15-1.025-11.788-1.537-17.938-2.05-28.188-2.562-56.377-0.512-84.052 5.126-1.538 0.512-2.563 1.025-4.1 1.025-8.2 1.537-15.888 3.075-24.089 5.125 6.15-1.538 12.813-2.563 19.476-3.588-14.35 4.613-28.7 10.25-42.539 16.913-7.175 3.075-14.35 6.663-21.013 10.763-8.712 5.125-17.425 10.25-25.625 16.4-18.963 13.325-36.389 29.726-51.251 47.664-12.3 14.863-22.551 31.263-30.751 48.176l-2.563 5.125c-0.512 0.513-0.512 1.025-1.025 2.05l-1.537 0.513-1.538 4.1-1.537 4.612c-1.025 2.05-1.538 4.1-2.563 6.663 0.513-6.663 0.513-13.325 1.025-19.475 1.025-3.075 2.05-6.663 3.588-9.738-1.025 2.562-2.05 4.612-3.075 7.175l-2.05 4.613-1.538 4.1v-1.538c10.25-23.063 23.576-45.1 37.926-65.601 0.512-1.025 1.537-2.05 2.05-3.075l10.763-10.763 0.512-0.513c27.163-25.625 58.94-45.613 92.765-60.476 32.288-13.838 66.627-23.063 101.99-26.138h7.688c3.075 0 6.15 0 9.225 0.512l9.225 0.513c12.3 1.025 25.113 2.562 37.414 5.125 0.512 0 1.537 0 2.05 0.512-17.426-2.05-35.364-3.075-52.79-2.05l9.226 0.513c1.538 0 3.075 0 4.613 0.512 17.425 1.025 34.85 3.588 51.763 6.663 15.376 3.075 30.239 7.175 45.101 12.3l3.076 1.538 4.1 2.05c1.537 0.512 3.075 1.025 4.1 2.05l8.712 4.1c3.076 1.538 5.638 3.075 8.2 4.613l4.1 2.05c1.538 1.025 2.563 1.537 4.1 2.562 2.563 1.538 5.639 3.075 8.201 5.125 2.05 1.025 4.1 2.563 5.638 3.588-4.1-2.563-8.2-4.613-12.3-6.663 8.2 5.125 16.912 10.25 24.6 15.376 2.05 1.025 3.588 2.562 5.638 3.587 2.562 2.05 4.612 3.588 7.175 5.638 9.738 8.2 19.475 16.4 28.188 25.625 17.938 17.938 33.826 37.926 48.176 58.94 28.188 42.538 49.201 89.69 62.527 138.89-13.326-49.2-33.826-96.865-62.014-139.403-18.963-28.7-41.514-54.839-67.14-76.877 13.326 10.25 26.139 20.5 38.439 31.776-17.425-17.938-36.901-33.826-58.426-47.664l-19.988-13.838c-2.563-1.537-5.638-3.075-8.2-5.125-1.538-1.025-2.563-1.537-4.1-2.562l-4.1-2.05c-2.563-1.538-5.638-3.076-8.201-4.613l-4.613-2.563c4.613 1.538 8.713 3.588 13.326 5.638-18.45-9.738-37.926-17.938-57.914-24.088-0.513 0-1.025-0.513-1.538-0.513-3.075-0.512-6.15-1.537-9.225-2.05-0.512 0-1.025-0.512-1.538-0.512-6.15-1.538-12.3-3.075-18.45-4.1-3.588-0.513-7.175-1.538-10.763-2.05 10.25 1.537 19.988 3.075 29.726 5.125 28.188 6.15 55.351 15.888 80.977 28.7 10.25 6.15 19.988 12.3 29.726 18.964 21.525 15.375 42.026 32.288 61.501 50.226 6.15 6.662 11.788 13.325 17.426 20.5-4.613-6.15-9.738-12.3-15.376-18.45 5.638 5.637 11.788 10.763 17.426 16.4-6.15-6.15-12.813-12.3-19.476-18.45-19.475-21.526-42.538-40.489-67.139-55.864-7.688-5.125-15.888-9.225-24.088-13.838-19.476-11.275-39.976-21.013-60.99-28.7 4.101 1.024 8.714 2.05 12.814 3.587-5.125-1.538-10.25-3.075-15.376-4.1h-0.512c-16.913-5.638-33.826-10.25-51.251-12.813-17.426-3.075-34.851-4.1-52.79-3.588h-6.662l-6.663 0.513c-4.612 0.512-8.712 0.512-13.325 1.025-5.638 0.512-11.788 1.025-17.425 2.05-4.1 0.513-7.688 1.025-11.788 1.538-16.913 2.562-33.313 7.687-49.714 13.325-12.813 5.125-25.625 10.763-37.413 17.425 6.662-4.1 13.838-7.687 21.013-11.275 6.15-3.075 12.3-5.638 18.963-8.2l9.225-3.075c26.65-9.225 54.839-14.35 82.514-16.4 28.189-1.538 56.377 0.512 84.053 6.662 27.675 6.15 54.326 15.888 79.439 28.7 50.739 25.114 94.815 63.04 130.178 107.628 1.025 1.538 2.05 2.563 3.075 4.1l3.075 4.1 5.125 7.176v0.512c1.025 2.05 2.05 4.1 3.588 6.15 1.538 3.075 3.588 6.15 5.125 9.226l4.613 9.225 4.612 9.225c0.513 1.538 1.538 3.075 2.05 4.613l-2.05-5.638-2.05-4.613-0.512-1.025 5.125 10.763c1.025 2.05 2.05 4.613 3.075 6.663l2.563 6.662 2.562 6.663 1.538 3.588c0.512 1.025 1.025 2.562 1.025 3.587l4.612 13.838 1.025 3.588c0.513 1.025 1.025 2.562 1.025 3.587l2.05 7.175c1.538 4.613 2.563 9.226 4.1 14.35l3.076 14.351 1.537 7.175c0.513 2.563 1.025 4.613 1.025 7.176l2.563 14.35c0 1.025 0.512 2.562 0.512 3.587l0.513 3.588 1.025 7.175c0.512 5.125 1.025 9.738 1.537 14.863l1.025 14.35V574.6c-1.025 30.238-5.637 60.989-12.812 90.202h2.05l-3.588 14.35-2.05 7.176c-0.512 2.562-1.538 4.612-2.05 7.175l-4.613 13.838c-1.537 4.612-3.587 9.225-5.125 13.838l-2.562 6.662c-1.025 2.05-2.05 4.613-3.076 6.663l-6.15 13.325c-1.025 2.05-2.05 4.613-3.075 6.663l-3.075 6.663c-1.537 3.587-3.587 7.175-5.637 10.25-4.613 8.2-9.226 16.913-14.35 24.6-2.05 3.588-4.1 7.176-6.663 10.25 1.025-1.537 2.05-3.587 3.075-5.124 1.025-1.538 2.05-3.588 2.562-5.126l-1.025 1.538-3.587 6.663-3.588 6.662-0.512 0.513c-9.226 13.325-18.963 26.65-29.214 38.95 3.588-3.587 7.176-7.174 10.25-10.762-0.512 0.512-1.024 1.025-1.024 1.538l-4.613 6.15-2.05 3.075c-0.513 1.025-1.538 2.05-2.05 3.075" p-id="4882" fill="#500024"></path></svg>